<?xml version="1.0" encoding="UTF-8" standalone="no"?>
<svg
   xmlns:dc="http://purl.org/dc/elements/1.1/"
   xmlns:cc="http://creativecommons.org/ns#"
   xmlns:rdf="http://www.w3.org/1999/02/22-rdf-syntax-ns#"
   xmlns:svg="http://www.w3.org/2000/svg"
   xmlns="http://www.w3.org/2000/svg"
   xmlns:sodipodi="http://sodipodi.sourceforge.net/DTD/sodipodi-0.dtd"
   xmlns:inkscape="http://www.inkscape.org/namespaces/inkscape"
   width="162mm"
   height="192mm"
   viewBox="0 0 162 192"
   version="1.1"
   id="svg2132"
   inkscape:version="1.0.1 (3bc2e813f5, 2020-09-07)"
   sodipodi:docname="deleteContact.svg">
  <defs
     id="defs2126" />
  <sodipodi:namedview
     id="base"
     pagecolor="#ffffff"
     bordercolor="#666666"
     borderopacity="1.0"
     inkscape:pageopacity="0.0"
     inkscape:pageshadow="2"
     inkscape:zoom="0.35"
     inkscape:cx="400"
     inkscape:cy="445.71429"
     inkscape:document-units="mm"
     inkscape:current-layer="layer1"
     inkscape:document-rotation="0"
     showgrid="false"
     inkscape:window-width="1920"
     inkscape:window-height="1017"
     inkscape:window-x="1358"
     inkscape:window-y="-8"
     inkscape:window-maximized="1" />
  <metadata
     id="metadata2129">
    <rdf:RDF>
      <cc:Work
         rdf:about="">
        <dc:format>image/svg+xml</dc:format>
        <dc:type
           rdf:resource="http://purl.org/dc/dcmitype/StillImage" />
        <dc:title></dc:title>
      </cc:Work>
    </rdf:RDF>
  </metadata>
  <g
     inkscape:label="Layer 1"
     inkscape:groupmode="layer"
     id="layer1">
    <g
       opacity="0.85"
       id="g1525"
       style="fill:none"
       transform="matrix(1.8070182,0,0,1.8070182,-1149.1053,-448.20617)">
      <path
         d="m 681.003,298.341 c -22.529,0 -41.133,16.794 -43.96,38.54 -0.19,1.458 0.258,2.927 1.23,4.031 0.972,1.104 2.372,1.734 3.843,1.734 h 77.773 c 1.47,0 2.868,-0.633 3.839,-1.736 0.971,-1.103 1.424,-2.573 1.235,-4.029 -2.828,-21.746 -21.432,-38.54 -43.96,-38.54 z"
         fill="#ffb74a"
         id="path1503" />
      <path
         d="m 680.699,298.341 c -22.373,0 -40.848,16.794 -43.657,38.54 -0.188,1.458 0.257,2.927 1.222,4.031 0.965,1.104 2.356,1.734 3.817,1.734 h 38.618 z"
         fill="#ffc56e"
         id="path1505" />
      <path
         d="m 702.878,303.521 c -6.236,-3.301 -13.363,-5.18 -20.939,-5.18 -7.575,0 -14.703,1.879 -20.939,5.18 4.919,7.2 12.468,11.814 20.939,11.814 8.471,0 16.02,-4.614 20.939,-11.814 z"
         fill="#de9f40"
         id="path1507" />
      <path
         d="m 681.008,307.444 c 14.917,0 27.009,-13.043 27.009,-29.132 0,-16.09 -12.092,-29.133 -27.009,-29.133 -14.916,0 -27.008,13.043 -27.008,29.133 0,16.089 12.092,29.132 27.008,29.132 z"
         fill="#ffdbac"
         id="path1509" />
      <path
         d="m 680.705,249.179 c -14.749,0 -26.705,13.043 -26.705,29.133 0,16.089 11.956,29.132 26.705,29.132 z"
         fill="#ffeed9"
         id="path1511" />
      <path
         d="m 681.636,353.571 c 11.396,0 20.635,-9.239 20.635,-20.635 0,-11.397 -9.239,-20.636 -20.635,-20.636 -11.397,0 -20.636,9.239 -20.636,20.636 0,11.396 9.239,20.635 20.636,20.635 z"
         fill="#db0404"
         id="path1513" />
      <path
         d="m 661,332.936 c 0,11.396 9.51,20.635 21.243,20.635 V 312.3 C 670.51,312.3 661,321.539 661,332.936 Z"
         fill="#ff432e"
         id="path1515" />
      <path
         d="m 690.206,336.187 -3.29,-3.291 -5.084,-5.083 -3.29,-3.291 c -1.404,-1.403 -3.68,-1.403 -5.084,0 -1.403,1.404 -1.404,3.68 0,5.084 l 3.291,3.291 5.083,5.083 3.29,3.29 c 1.404,1.404 3.68,1.404 5.084,0 1.404,-1.404 1.404,-3.679 0,-5.083 z"
         fill="#e9edf5"
         id="path1517" />
      <path
         d="m 679.291,335.438 5.083,-5.083 -2.542,-2.542 -3.29,-3.291 c -1.404,-1.403 -3.68,-1.404 -5.084,0 -1.403,1.404 -1.404,3.68 0,5.084 l 3.291,3.29 z"
         fill="#ffffff"
         id="path1519" />
      <path
         d="m 685.22,324.393 -3.291,3.29 -5.083,5.083 -3.291,3.291 c -1.403,1.404 -1.403,3.68 0,5.083 1.404,1.404 3.68,1.404 5.084,0 l 3.29,-3.29 5.084,-5.084 3.29,-3.29 c 1.404,-1.403 1.404,-3.68 0,-5.083 -1.404,-1.404 -3.679,-1.404 -5.083,0 z"
         fill="#e9edf5"
         id="path1521" />
      <path
         d="m 681.929,337.849 -10e-4,-10.192 -5.083,5.109 -3.291,3.29 c -1.403,1.404 -1.403,3.68 0,5.084 1.404,1.403 3.68,1.403 5.084,0 z"
         fill="#ffffff"
         id="path1523" />
    </g>
  </g>
</svg>
